<?xml version="1.0" encoding="UTF-8"?><svg xmlns="http://www.w3.org/2000/svg" xmlns:xlink="http://www.w3.org/1999/xlink" contentScriptType="text/ecmascript" width="224.87999" zoomAndPan="magnify" contentStyleType="text/css" viewBox="0 0 224.87999 337.499995" height="337.499995" preserveAspectRatio="xMidYMid meet" version="1.0"><defs><clipPath id="clip-0"><path d="M 0.105469 0 L 224.652344 0 L 224.652344 337 L 0.105469 337 Z M 0.105469 0 " clip-rule="nonzero"/></clipPath><clipPath id="clip-1"><path d="M 0.105469 71 L 224.652344 71 L 224.652344 337 L 0.105469 337 Z M 0.105469 71 " clip-rule="nonzero"/></clipPath><clipPath id="clip-2"><path d="M 0.105469 0 L 224.652344 0 L 224.652344 72 L 0.105469 72 Z M 0.105469 0 " clip-rule="nonzero"/></clipPath></defs><g clip-path="url(#clip-0)"><path fill="rgb(100%, 100%, 100%)" d="M 0.105469 0 L 224.773438 0 L 224.773438 344.488281 L 0.105469 344.488281 Z M 0.105469 0 " fill-opacity="1" fill-rule="nonzero"/><path fill="rgb(100%, 100%, 100%)" d="M 0.105469 0 L 224.773438 0 L 224.773438 337 L 0.105469 337 Z M 0.105469 0 " fill-opacity="1" fill-rule="nonzero"/><path fill="rgb(100%, 100%, 100%)" d="M 0.105469 0 L 224.773438 0 L 224.773438 337 L 0.105469 337 Z M 0.105469 0 " fill-opacity="1" fill-rule="nonzero"/></g><g clip-path="url(#clip-1)"><path fill="rgb(92.549133%, 94.119263%, 94.509888%)" d="M 266.546875 346.734375 L -41.332031 346.734375 C -52.0625 346.734375 -60.761719 338.039062 -60.761719 327.308594 L -60.761719 71.738281 L 285.972656 71.738281 L 285.972656 327.308594 C 285.972656 338.039062 277.277344 346.734375 266.546875 346.734375 Z M 266.546875 346.734375 " fill-opacity="1" fill-rule="nonzero"/></g><g clip-path="url(#clip-2)"><path fill="rgb(40.779114%, 45.489502%, 57.249451%)" d="M 285.972656 71.738281 L -60.761719 71.738281 L -60.761719 19.429688 C -60.761719 8.699219 -52.0625 0 -41.332031 0 L 266.546875 0 C 277.277344 0 285.972656 8.699219 285.972656 19.429688 Z M 285.972656 71.738281 " fill-opacity="1" fill-rule="nonzero"/></g><path fill="rgb(94.119263%, 76.858521%, 9.799194%)" d="M 10.976562 23.914062 L 34.890625 23.914062 L 34.890625 47.824219 L 10.976562 47.824219 Z M 10.976562 23.914062 " fill-opacity="1" fill-rule="nonzero"/><path fill="rgb(14.118958%, 68.238831%, 37.249756%)" d="M 58.800781 23.914062 L 82.714844 23.914062 L 82.714844 47.824219 L 58.800781 47.824219 Z M 58.800781 23.914062 " fill-opacity="1" fill-rule="nonzero"/><path fill="rgb(26.669312%, 50.979614%, 76.469421%)" d="M 154.453125 322.824219 L 70.757812 322.824219 C 60.871094 322.824219 52.824219 314.777344 52.824219 304.890625 C 52.824219 295 60.871094 286.953125 70.757812 286.953125 L 154.453125 286.953125 C 164.339844 286.953125 172.386719 295 172.386719 304.890625 C 172.386719 314.777344 164.339844 322.824219 154.453125 322.824219 Z M 154.453125 322.824219 " fill-opacity="1" fill-rule="nonzero"/><path fill="rgb(74.119568%, 76.469421%, 78.039551%)" d="M 172.386719 245.105469 L 52.824219 245.105469 C 49.523438 245.105469 46.847656 242.433594 46.847656 239.128906 C 46.847656 235.824219 49.523438 233.148438 52.824219 233.148438 L 172.386719 233.148438 C 175.6875 233.148438 178.367188 235.824219 178.367188 239.128906 C 178.367188 242.433594 175.6875 245.105469 172.386719 245.105469 Z M 172.386719 245.105469 " fill-opacity="1" fill-rule="nonzero"/><path fill="rgb(74.119568%, 76.469421%, 78.039551%)" d="M 202.277344 269.019531 L 22.933594 269.019531 C 19.632812 269.019531 16.953125 266.347656 16.953125 263.042969 C 16.953125 259.734375 19.632812 257.0625 22.933594 257.0625 L 202.277344 257.0625 C 205.578125 257.0625 208.257812 259.734375 208.257812 263.042969 C 208.257812 266.347656 205.578125 269.019531 202.277344 269.019531 Z M 202.277344 269.019531 " fill-opacity="1" fill-rule="nonzero"/><path fill="rgb(90.19928%, 29.798889%, 23.529053%)" d="M 28.910156 173.367188 C 28.128906 173.367188 27.328125 173.21875 26.5625 172.882812 C 23.523438 171.582031 22.121094 168.066406 23.421875 165.039062 L 41.359375 123.191406 C 42.660156 120.15625 46.171875 118.738281 49.207031 120.054688 C 52.242188 121.359375 53.648438 124.871094 52.347656 127.898438 L 34.410156 169.746094 C 33.4375 172.011719 31.226562 173.367188 28.910156 173.367188 Z M 28.910156 173.367188 " fill-opacity="1" fill-rule="nonzero"/><path fill="rgb(90.19928%, 29.798889%, 23.529053%)" d="M 70.757812 173.367188 L 28.910156 173.367188 C 25.609375 173.367188 22.933594 170.695312 22.933594 167.390625 C 22.933594 164.085938 25.609375 161.410156 28.910156 161.410156 L 70.757812 161.410156 C 74.058594 161.410156 76.738281 164.085938 76.738281 167.390625 C 76.738281 170.695312 74.058594 173.367188 70.757812 173.367188 Z M 70.757812 173.367188 " fill-opacity="1" fill-rule="nonzero"/><path fill="rgb(90.19928%, 29.798889%, 23.529053%)" d="M 52.824219 197.28125 C 49.523438 197.28125 46.847656 194.609375 46.847656 191.304688 L 46.847656 155.433594 C 46.847656 152.128906 49.523438 149.457031 52.824219 149.457031 C 56.125 149.457031 58.800781 152.128906 58.800781 155.433594 L 58.800781 191.304688 C 58.800781 194.609375 56.125 197.28125 52.824219 197.28125 Z M 52.824219 197.28125 " fill-opacity="1" fill-rule="nonzero"/><path fill="rgb(90.19928%, 29.798889%, 23.529053%)" d="M 154.453125 173.367188 C 153.671875 173.367188 152.871094 173.21875 152.105469 172.882812 C 149.066406 171.582031 147.664062 168.066406 148.964844 165.039062 L 166.898438 123.191406 C 168.203125 120.15625 171.71875 118.738281 174.75 120.054688 C 177.785156 121.359375 179.191406 124.871094 177.886719 127.898438 L 159.953125 169.746094 C 158.980469 172.011719 156.765625 173.367188 154.453125 173.367188 Z M 154.453125 173.367188 " fill-opacity="1" fill-rule="nonzero"/><path fill="rgb(90.19928%, 29.798889%, 23.529053%)" d="M 196.300781 173.367188 L 154.453125 173.367188 C 151.152344 173.367188 148.476562 170.695312 148.476562 167.390625 C 148.476562 164.085938 151.152344 161.410156 154.453125 161.410156 L 196.300781 161.410156 C 199.601562 161.410156 202.277344 164.085938 202.277344 167.390625 C 202.277344 170.695312 199.601562 173.367188 196.300781 173.367188 Z M 196.300781 173.367188 " fill-opacity="1" fill-rule="nonzero"/><path fill="rgb(90.19928%, 29.798889%, 23.529053%)" d="M 178.367188 197.28125 C 175.066406 197.28125 172.386719 194.609375 172.386719 191.304688 L 172.386719 155.433594 C 172.386719 152.128906 175.066406 149.457031 178.367188 149.457031 C 181.667969 149.457031 184.34375 152.128906 184.34375 155.433594 L 184.34375 191.304688 C 184.34375 194.609375 181.667969 197.28125 178.367188 197.28125 Z M 178.367188 197.28125 " fill-opacity="1" fill-rule="nonzero"/><path fill="rgb(90.19928%, 29.798889%, 23.529053%)" d="M 112.605469 197.28125 C 99.417969 197.28125 88.691406 186.554688 88.691406 173.367188 L 88.691406 143.476562 C 88.691406 130.289062 99.417969 119.5625 112.605469 119.5625 C 125.792969 119.5625 136.519531 130.289062 136.519531 143.476562 L 136.519531 173.367188 C 136.519531 186.554688 125.792969 197.28125 112.605469 197.28125 Z M 112.605469 131.519531 C 106.011719 131.519531 100.648438 136.882812 100.648438 143.476562 L 100.648438 173.367188 C 100.648438 179.960938 106.011719 185.324219 112.605469 185.324219 C 119.199219 185.324219 124.5625 179.960938 124.5625 173.367188 L 124.5625 143.476562 C 124.5625 136.882812 119.199219 131.519531 112.605469 131.519531 Z M 112.605469 131.519531 " fill-opacity="1" fill-rule="nonzero"/></svg>